<?xml version="1.0" encoding="utf-8"?><svg viewBox="0 0 40 40" xmlns="http://www.w3.org/2000/svg" xmlns:xlink="http://www.w3.org/1999/xlink"><style>:root>svg{display:none}:root>svg:target{display:block}</style><svg fill="none" viewBox="0 0 10 6" id="arr-down" xmlns="http://www.w3.org/2000/svg"><path d="M5 5.5l-5-5h10l-5 5z" fill="#212121"/></svg><svg fill="none" viewBox="0 0 20 20" id="phone" xmlns="http://www.w3.org/2000/svg"><g clip-path="url(#bclip0_1104_194)"><path d="M18.333 14.1v2.5a1.667 1.667 0 01-1.816 1.667 16.492 16.492 0 01-7.192-2.559 16.25 16.25 0 01-5-5 16.492 16.492 0 01-2.558-7.225 1.667 1.667 0 011.658-1.816h2.5A1.667 1.667 0 017.592 3.1c.105.8.301 1.586.583 2.342A1.667 1.667 0 017.8 7.2L6.742 8.258a13.333 13.333 0 005 5L12.8 12.2a1.666 1.666 0 011.758-.375c.757.282 1.542.478 2.342.583a1.667 1.667 0 011.433 1.692z" stroke="#FF5900" stroke-width="2" stroke-linecap="round" stroke-linejoin="round"/></g><defs><clipPath id="bclip0_1104_194"><path fill="#fff" d="M0 0h20v20H0z"/></clipPath></defs></svg><svg fill="none" viewBox="0 0 20 20" id="phone2" xmlns="http://www.w3.org/2000/svg"><path d="M18.333 14.1v2.5a1.666 1.666 0 01-1.816 1.667 16.49 16.49 0 01-7.192-2.559 16.25 16.25 0 01-5-5 16.492 16.492 0 01-2.558-7.225 1.667 1.667 0 011.658-1.816h2.5A1.667 1.667 0 017.592 3.1c.105.8.301 1.586.583 2.342A1.667 1.667 0 017.8 7.2L6.742 8.258a13.333 13.333 0 005 5L12.8 12.2a1.666 1.666 0 011.758-.375c.757.282 1.542.478 2.342.583a1.667 1.667 0 011.433 1.692z" stroke="#fff" stroke-width="2" stroke-linecap="round" stroke-linejoin="round"/></svg><svg fill="none" viewBox="0 0 24 24" id="search" xmlns="http://www.w3.org/2000/svg"><path d="M11 19a8 8 0 100-16 8 8 0 000 16zM21 21l-4.35-4.35" stroke="#212121" stroke-width="2" stroke-linecap="round" stroke-linejoin="round"/></svg><svg fill="none" viewBox="0 0 40 40" id="telegram" xmlns="http://www.w3.org/2000/svg"><g clip-path="url(#eclip0_38_50)"><path d="M26.54 29.174l3.281-15.469c.134-.654.056-1.123-.234-1.406-.29-.283-.673-.335-1.15-.156L9.152 19.576c-.432.164-.726.35-.882.558-.156.208-.175.405-.056.591.12.186.357.331.715.436l4.933 1.54 11.45-7.21c.313-.208.551-.253.715-.134.104.075.074.186-.09.335l-9.263 8.37-.357 5.09c.342 0 .677-.164 1.004-.491l2.411-2.322 5 3.683c.953.536 1.555.253 1.808-.848zM40 20c0 2.708-.528 5.298-1.585 7.768-1.056 2.47-2.477 4.598-4.263 6.384-1.786 1.785-3.914 3.207-6.384 4.263A19.552 19.552 0 0120 40c-2.708 0-5.298-.528-7.768-1.585-2.47-1.056-4.598-2.477-6.384-4.263-1.785-1.786-3.207-3.914-4.263-6.384A19.552 19.552 0 010 20c0-2.708.528-5.298 1.585-7.768 1.056-2.47 2.478-4.598 4.263-6.384 1.786-1.785 3.914-3.207 6.384-4.263A19.552 19.552 0 0120 0c2.708 0 5.298.528 7.768 1.585 2.47 1.056 4.598 2.478 6.384 4.263 1.785 1.786 3.207 3.914 4.263 6.384A19.552 19.552 0 0140 20z" fill="#fff"/></g><defs><clipPath id="eclip0_38_50"><path fill="#fff" d="M0 0h40v40H0z"/></clipPath></defs></svg><svg fill="none" viewBox="0 0 40 40" id="vk" xmlns="http://www.w3.org/2000/svg"><g clip-path="url(#fclip0_38_48)"><path d="M26.139 0H13.86C2.655 0-.001 2.656-.001 13.861V26.14c0 11.205 2.656 13.861 13.861 13.861h12.279C37.344 40.001 40 37.345 40 26.14V13.861C40 2.656 37.318 0 26.139 0zm6.152 28.535h-2.903c-1.1 0-1.44-.872-3.418-2.878-1.719-1.666-2.48-1.887-2.904-1.887-.598 0-.768.169-.768.99v2.624c0 .703-.222 1.126-2.084 1.126-3.08 0-6.498-1.863-8.894-5.333-3.614-5.084-4.603-8.893-4.603-9.68 0-.425.17-.82.983-.82h2.91c.736 0 1.016.338 1.303 1.126 1.438 4.153 3.835 7.792 4.823 7.792.365 0 .534-.169.534-1.1v-4.29c-.111-1.979-1.152-2.149-1.152-2.851 0-.339.28-.678.728-.678h4.576c.62 0 .847.339.847 1.068v5.787c0 .625.28.847.449.847.364 0 .677-.222 1.353-.9 2.09-2.343 3.588-5.957 3.588-5.957.195-.424.534-.82 1.27-.82h2.91c.872 0 1.067.449.872 1.074-.365 1.692-3.926 6.719-3.926 6.719-.306.507-.424.729 0 1.295.313.423 1.329 1.302 2.005 2.09 1.244 1.412 2.2 2.597 2.455 3.417.286.814-.136 1.238-.957 1.238l.003.001z" fill="#fff"/></g><defs><clipPath id="fclip0_38_48"><path fill="#fff" d="M0 0h40v40H0z"/></clipPath></defs></svg></svg>